<mxfile host="app.diagrams.net" modified="2024-03-06T09:46:19.335Z" agent="Mozilla/5.0 (Windows NT 10.0; Win64; x64) AppleWebKit/537.36 (KHTML, like Gecko) Chrome/122.0.0.0 Safari/537.36 Edg/122.0.0.0" etag="Iw_mOvJVTswM5Bcfkben" version="24.0.1" type="github">
  <diagram name="第 1 页" id="SnEiPAsqYIaOKTm-W5p2">
    <mxGraphModel dx="946" dy="613" grid="1" gridSize="10" guides="1" tooltips="1" connect="1" arrows="1" fold="1" page="1" pageScale="1" pageWidth="827" pageHeight="1169" math="0" shadow="0">
      <root>
        <mxCell id="0" />
        <mxCell id="1" parent="0" />
        <mxCell id="nd6yBEO4HvQz4fjfClLw-33" style="edgeStyle=orthogonalEdgeStyle;rounded=0;orthogonalLoop=1;jettySize=auto;html=1;exitX=0.5;exitY=1;exitDx=0;exitDy=0;exitPerimeter=0;entryX=0.5;entryY=0;entryDx=0;entryDy=0;fontSize=14;" parent="1" source="nd6yBEO4HvQz4fjfClLw-1" target="nd6yBEO4HvQz4fjfClLw-2" edge="1">
          <mxGeometry relative="1" as="geometry" />
        </mxCell>
        <mxCell id="nd6yBEO4HvQz4fjfClLw-1" value="Start" style="strokeWidth=2;html=1;shape=mxgraph.flowchart.start_1;whiteSpace=wrap;fontSize=14;" parent="1" vertex="1">
          <mxGeometry x="270" y="40" width="100" height="60" as="geometry" />
        </mxCell>
        <mxCell id="nd6yBEO4HvQz4fjfClLw-2" value="【云侧DevOps】配置云升级规则，“版本描述”字段中填写“[0|1]|[中文强提醒内容]|[英文强提醒内容]”" style="rounded=1;whiteSpace=wrap;html=1;absoluteArcSize=1;arcSize=14;strokeWidth=2;fontSize=14;" parent="1" vertex="1">
          <mxGeometry x="236" y="133" width="170" height="70" as="geometry" />
        </mxCell>
        <mxCell id="nd6yBEO4HvQz4fjfClLw-25" style="edgeStyle=orthogonalEdgeStyle;rounded=0;orthogonalLoop=1;jettySize=auto;html=1;exitX=1;exitY=0.5;exitDx=0;exitDy=0;exitPerimeter=0;entryX=0.5;entryY=0;entryDx=0;entryDy=0;fontSize=14;" parent="1" source="nd6yBEO4HvQz4fjfClLw-4" target="nd6yBEO4HvQz4fjfClLw-5" edge="1">
          <mxGeometry relative="1" as="geometry" />
        </mxCell>
        <mxCell id="nd6yBEO4HvQz4fjfClLw-4" value="【App侧】是&lt;div style=&quot;font-size: 14px;&quot;&gt;老协议设备&lt;/div&gt;" style="strokeWidth=2;html=1;shape=mxgraph.flowchart.decision;whiteSpace=wrap;fontSize=14;" parent="1" vertex="1">
          <mxGeometry x="245" y="240" width="150" height="80" as="geometry" />
        </mxCell>
        <mxCell id="nd6yBEO4HvQz4fjfClLw-36" style="edgeStyle=orthogonalEdgeStyle;rounded=0;orthogonalLoop=1;jettySize=auto;html=1;exitX=0.5;exitY=1;exitDx=0;exitDy=0;fontSize=14;" parent="1" source="nd6yBEO4HvQz4fjfClLw-5" target="nd6yBEO4HvQz4fjfClLw-24" edge="1">
          <mxGeometry relative="1" as="geometry" />
        </mxCell>
        <mxCell id="nd6yBEO4HvQz4fjfClLw-5" value="【App侧】采用SDK2，按老流程进行云升级检测" style="rounded=1;whiteSpace=wrap;html=1;absoluteArcSize=1;arcSize=14;strokeWidth=2;fontSize=14;" parent="1" vertex="1">
          <mxGeometry x="430" y="365" width="104" height="67" as="geometry" />
        </mxCell>
        <mxCell id="nd6yBEO4HvQz4fjfClLw-7" value="是" style="text;html=1;align=center;verticalAlign=middle;whiteSpace=wrap;rounded=0;fontSize=14;" parent="1" vertex="1">
          <mxGeometry x="404" y="257" width="30" height="30" as="geometry" />
        </mxCell>
        <mxCell id="nd6yBEO4HvQz4fjfClLw-9" value="【App侧】复用UCS客户端的设备云升级检测流程" style="rounded=1;whiteSpace=wrap;html=1;absoluteArcSize=1;arcSize=14;strokeWidth=2;fontSize=14;" parent="1" vertex="1">
          <mxGeometry x="259" y="470" width="120" height="70" as="geometry" />
        </mxCell>
        <mxCell id="nd6yBEO4HvQz4fjfClLw-13" style="edgeStyle=orthogonalEdgeStyle;rounded=0;orthogonalLoop=1;jettySize=auto;html=1;exitX=0.5;exitY=1;exitDx=0;exitDy=0;exitPerimeter=0;entryX=0.5;entryY=0;entryDx=0;entryDy=0;fontSize=14;" parent="1" target="nd6yBEO4HvQz4fjfClLw-9" edge="1">
          <mxGeometry relative="1" as="geometry">
            <mxPoint x="319.5" y="433" as="sourcePoint" />
          </mxGeometry>
        </mxCell>
        <mxCell id="nd6yBEO4HvQz4fjfClLw-11" style="edgeStyle=orthogonalEdgeStyle;rounded=0;orthogonalLoop=1;jettySize=auto;html=1;exitX=0.5;exitY=1;exitDx=0;exitDy=0;exitPerimeter=0;entryX=0.5;entryY=0;entryDx=0;entryDy=0;entryPerimeter=0;fontSize=14;" parent="1" source="nd6yBEO4HvQz4fjfClLw-4" edge="1">
          <mxGeometry relative="1" as="geometry">
            <mxPoint x="319.5" y="353" as="targetPoint" />
          </mxGeometry>
        </mxCell>
        <mxCell id="nd6yBEO4HvQz4fjfClLw-12" value="否" style="text;html=1;align=center;verticalAlign=middle;whiteSpace=wrap;rounded=0;fontSize=14;" parent="1" vertex="1">
          <mxGeometry x="324" y="320" width="30" height="30" as="geometry" />
        </mxCell>
        <mxCell id="nd6yBEO4HvQz4fjfClLw-14" value="是" style="text;html=1;align=center;verticalAlign=middle;whiteSpace=wrap;rounded=0;fontSize=14;" parent="1" vertex="1">
          <mxGeometry x="324" y="433" width="30" height="30" as="geometry" />
        </mxCell>
        <mxCell id="nd6yBEO4HvQz4fjfClLw-43" style="edgeStyle=orthogonalEdgeStyle;rounded=0;orthogonalLoop=1;jettySize=auto;html=1;exitX=0.5;exitY=1;exitDx=0;exitDy=0;entryX=0;entryY=0.5;entryDx=0;entryDy=0;fontSize=14;" parent="1" source="nd6yBEO4HvQz4fjfClLw-15" target="nd6yBEO4HvQz4fjfClLw-24" edge="1">
          <mxGeometry relative="1" as="geometry" />
        </mxCell>
        <mxCell id="nd6yBEO4HvQz4fjfClLw-15" value="【App侧】采用SDK3的云升级检测" style="rounded=1;whiteSpace=wrap;html=1;absoluteArcSize=1;arcSize=14;strokeWidth=2;fontSize=14;" parent="1" vertex="1">
          <mxGeometry x="269" y="692" width="105" height="58" as="geometry" />
        </mxCell>
        <mxCell id="nd6yBEO4HvQz4fjfClLw-21" style="edgeStyle=orthogonalEdgeStyle;rounded=0;orthogonalLoop=1;jettySize=auto;html=1;exitX=0.5;exitY=1;exitDx=0;exitDy=0;exitPerimeter=0;entryX=0.5;entryY=0;entryDx=0;entryDy=0;fontSize=14;" parent="1" source="nd6yBEO4HvQz4fjfClLw-19" target="nd6yBEO4HvQz4fjfClLw-15" edge="1">
          <mxGeometry relative="1" as="geometry" />
        </mxCell>
        <mxCell id="nd6yBEO4HvQz4fjfClLw-19" value="【App侧】云升级&lt;div style=&quot;font-size: 14px;&quot;&gt;检测&lt;span style=&quot;background-color: initial; font-size: 14px;&quot;&gt;不支持&lt;/span&gt;&lt;/div&gt;" style="strokeWidth=2;html=1;shape=mxgraph.flowchart.decision;whiteSpace=wrap;fontSize=14;" parent="1" vertex="1">
          <mxGeometry x="249.5" y="568" width="144" height="72" as="geometry" />
        </mxCell>
        <mxCell id="nd6yBEO4HvQz4fjfClLw-22" style="edgeStyle=orthogonalEdgeStyle;rounded=0;orthogonalLoop=1;jettySize=auto;html=1;exitX=0.5;exitY=1;exitDx=0;exitDy=0;entryX=0.5;entryY=0;entryDx=0;entryDy=0;entryPerimeter=0;fontSize=14;" parent="1" source="nd6yBEO4HvQz4fjfClLw-9" target="nd6yBEO4HvQz4fjfClLw-19" edge="1">
          <mxGeometry relative="1" as="geometry" />
        </mxCell>
        <mxCell id="nd6yBEO4HvQz4fjfClLw-23" value="是" style="text;html=1;align=center;verticalAlign=middle;whiteSpace=wrap;rounded=0;fontSize=14;" parent="1" vertex="1">
          <mxGeometry x="327" y="650" width="30" height="30" as="geometry" />
        </mxCell>
        <mxCell id="nd6yBEO4HvQz4fjfClLw-24" value="【App侧】从云升级检测响应中获取相应的强提醒设置及App是否是重启或切换云账号，进行相应强提醒" style="rounded=1;whiteSpace=wrap;html=1;absoluteArcSize=1;arcSize=14;strokeWidth=2;fontSize=14;" parent="1" vertex="1">
          <mxGeometry x="392" y="800" width="180" height="70" as="geometry" />
        </mxCell>
        <mxCell id="nd6yBEO4HvQz4fjfClLw-29" value="否" style="text;html=1;align=center;verticalAlign=middle;whiteSpace=wrap;rounded=0;fontSize=14;" parent="1" vertex="1">
          <mxGeometry x="388" y="571" width="30" height="30" as="geometry" />
        </mxCell>
        <mxCell id="nd6yBEO4HvQz4fjfClLw-34" style="edgeStyle=orthogonalEdgeStyle;rounded=0;orthogonalLoop=1;jettySize=auto;html=1;exitX=0.5;exitY=1;exitDx=0;exitDy=0;entryX=0.5;entryY=0;entryDx=0;entryDy=0;entryPerimeter=0;fontSize=14;" parent="1" source="nd6yBEO4HvQz4fjfClLw-2" target="nd6yBEO4HvQz4fjfClLw-4" edge="1">
          <mxGeometry relative="1" as="geometry" />
        </mxCell>
        <mxCell id="nd6yBEO4HvQz4fjfClLw-38" style="edgeStyle=orthogonalEdgeStyle;rounded=0;orthogonalLoop=1;jettySize=auto;html=1;exitX=1;exitY=0.5;exitDx=0;exitDy=0;exitPerimeter=0;entryX=0.401;entryY=0;entryDx=0;entryDy=0;entryPerimeter=0;fontSize=14;" parent="1" source="nd6yBEO4HvQz4fjfClLw-19" target="nd6yBEO4HvQz4fjfClLw-24" edge="1">
          <mxGeometry relative="1" as="geometry" />
        </mxCell>
        <mxCell id="nd6yBEO4HvQz4fjfClLw-48" style="edgeStyle=orthogonalEdgeStyle;rounded=0;orthogonalLoop=1;jettySize=auto;html=1;exitX=0;exitY=0.5;exitDx=0;exitDy=0;exitPerimeter=0;entryX=1;entryY=0.5;entryDx=0;entryDy=0;fontSize=14;" parent="1" source="nd6yBEO4HvQz4fjfClLw-44" target="nd6yBEO4HvQz4fjfClLw-46" edge="1">
          <mxGeometry relative="1" as="geometry" />
        </mxCell>
        <mxCell id="nd6yBEO4HvQz4fjfClLw-44" value="【App侧】用户&lt;div style=&quot;font-size: 14px;&quot;&gt;确认升级&lt;/div&gt;" style="strokeWidth=2;html=1;shape=mxgraph.flowchart.decision;whiteSpace=wrap;fontSize=14;" parent="1" vertex="1">
          <mxGeometry x="406" y="906" width="144" height="72" as="geometry" />
        </mxCell>
        <mxCell id="nd6yBEO4HvQz4fjfClLw-45" value="End" style="strokeWidth=2;html=1;shape=mxgraph.flowchart.terminator;whiteSpace=wrap;fontSize=14;" parent="1" vertex="1">
          <mxGeometry x="269" y="1000" width="100" height="40" as="geometry" />
        </mxCell>
        <mxCell id="nd6yBEO4HvQz4fjfClLw-46" value="【App侧】后台静默升级" style="rounded=1;whiteSpace=wrap;html=1;absoluteArcSize=1;arcSize=14;strokeWidth=2;fontSize=14;" parent="1" vertex="1">
          <mxGeometry x="266.5" y="913" width="105" height="58" as="geometry" />
        </mxCell>
        <mxCell id="nd6yBEO4HvQz4fjfClLw-47" style="edgeStyle=orthogonalEdgeStyle;rounded=0;orthogonalLoop=1;jettySize=auto;html=1;exitX=0.5;exitY=1;exitDx=0;exitDy=0;entryX=0.5;entryY=0;entryDx=0;entryDy=0;entryPerimeter=0;fontSize=14;" parent="1" source="nd6yBEO4HvQz4fjfClLw-46" target="nd6yBEO4HvQz4fjfClLw-45" edge="1">
          <mxGeometry relative="1" as="geometry" />
        </mxCell>
        <mxCell id="nd6yBEO4HvQz4fjfClLw-49" style="edgeStyle=orthogonalEdgeStyle;rounded=0;orthogonalLoop=1;jettySize=auto;html=1;exitX=0.5;exitY=1;exitDx=0;exitDy=0;exitPerimeter=0;entryX=1;entryY=0.5;entryDx=0;entryDy=0;entryPerimeter=0;fontSize=14;" parent="1" source="nd6yBEO4HvQz4fjfClLw-44" target="nd6yBEO4HvQz4fjfClLw-45" edge="1">
          <mxGeometry relative="1" as="geometry" />
        </mxCell>
        <mxCell id="nd6yBEO4HvQz4fjfClLw-50" style="edgeStyle=orthogonalEdgeStyle;rounded=0;orthogonalLoop=1;jettySize=auto;html=1;exitX=0.5;exitY=1;exitDx=0;exitDy=0;entryX=0.5;entryY=0;entryDx=0;entryDy=0;entryPerimeter=0;fontSize=14;" parent="1" source="nd6yBEO4HvQz4fjfClLw-24" target="nd6yBEO4HvQz4fjfClLw-44" edge="1">
          <mxGeometry relative="1" as="geometry" />
        </mxCell>
        <mxCell id="nd6yBEO4HvQz4fjfClLw-51" value="是" style="text;html=1;align=center;verticalAlign=middle;whiteSpace=wrap;rounded=0;fontSize=14;" parent="1" vertex="1">
          <mxGeometry x="379" y="906" width="30" height="30" as="geometry" />
        </mxCell>
        <mxCell id="nd6yBEO4HvQz4fjfClLw-52" value="否" style="text;html=1;align=center;verticalAlign=middle;whiteSpace=wrap;rounded=0;fontSize=14;" parent="1" vertex="1">
          <mxGeometry x="440" y="978" width="30" height="30" as="geometry" />
        </mxCell>
        <mxCell id="HojlaQrTnK4gudY1Q9k8-1" value="【App侧】获取设备信息（/LAPI/V1.0/System/&lt;div&gt;Device/DeviceInfo）&lt;/div&gt;" style="rounded=1;whiteSpace=wrap;html=1;absoluteArcSize=1;arcSize=14;strokeWidth=2;fontSize=14;" vertex="1" parent="1">
          <mxGeometry x="224" y="358" width="190" height="70" as="geometry" />
        </mxCell>
      </root>
    </mxGraphModel>
  </diagram>
</mxfile>
